<svg width="34" height="34" viewBox="0 0 34 34" fill="none" xmlns="http://www.w3.org/2000/svg">
<g clip-path="url(#clip0_139_247)">
<path d="M0 16.9997C0 15.53 0.18649 14.1039 0.537115 12.7437C2.39057 12.8398 4.23042 11.9173 5.22206 10.1997C6.21294 8.48342 6.0929 6.4306 5.08506 4.87391C7.11202 2.88199 9.63614 1.39437 12.4543 0.614258C13.2977 2.26754 15.0166 3.39969 17 3.39969C18.9834 3.39969 20.7023 2.26754 21.5458 0.614258C24.3639 1.39437 26.8881 2.88199 28.915 4.87391C27.907 6.4306 27.787 8.48342 28.7779 10.1997C29.7696 11.9173 31.6095 12.8398 33.463 12.7437C33.8135 14.1039 34 15.53 34 16.9997C34 18.4693 33.8135 19.8954 33.463 21.2556C31.6095 21.1596 29.7696 22.0821 28.7779 23.7997C27.787 25.516 27.907 27.5687 28.915 29.1254C26.8881 31.1173 24.3639 32.605 21.5458 33.3851C20.7023 31.7319 18.9834 30.5997 17 30.5997C15.0166 30.5997 13.2977 31.7319 12.4543 33.3851C9.63614 32.605 7.11202 31.1173 5.08506 29.1254C6.0929 27.5687 6.21294 25.516 5.22206 23.7997C4.23042 22.0821 2.39057 21.1596 0.537115 21.2556C0.18649 19.8954 0 18.4693 0 16.9997ZM8.16655 22.0997C9.23772 23.955 9.54479 26.088 9.12591 28.0901C9.81915 28.5835 10.5571 29.0108 11.3303 29.366C12.855 28.001 14.8566 27.1997 17 27.1997C19.1434 27.1997 21.1449 28.001 22.6697 29.366C23.4428 29.0108 24.1808 28.5835 24.8741 28.0901C24.4552 26.088 24.7622 23.955 25.8335 22.0997C26.9045 20.2444 28.5983 18.9122 30.5414 18.2738C30.5803 17.8525 30.6 17.4277 30.6 16.9997C30.6 16.5718 30.5803 16.1468 30.5414 15.7257C28.5983 15.0873 26.9045 13.755 25.8335 11.8997C24.7622 10.0444 24.4552 7.91142 24.8741 5.90928C24.1808 5.41599 23.4428 4.9886 22.6697 4.63338C21.1449 5.99834 19.1434 6.79969 17 6.79969C14.8566 6.79969 12.855 5.99834 11.3303 4.63338C10.5571 4.9886 9.81915 5.41599 9.12591 5.90928C9.54479 7.91142 9.23772 10.0444 8.16655 11.8997C7.09539 13.755 5.40182 15.0873 3.45867 15.7257C3.41967 16.1468 3.4 16.5718 3.4 16.9997C3.4 17.4277 3.41967 17.8525 3.45867 18.2738C5.40182 18.9122 7.09539 20.2444 8.16655 22.0997ZM17 22.0997C14.1833 22.0997 11.9 19.8164 11.9 16.9997C11.9 14.1831 14.1833 11.8997 17 11.8997C19.8167 11.8997 22.1 14.1831 22.1 16.9997C22.1 19.8164 19.8167 22.0997 17 22.0997ZM17 18.6997C17.9389 18.6997 18.7 17.9386 18.7 16.9997C18.7 16.0607 17.9389 15.2997 17 15.2997C16.0611 15.2997 15.3 16.0607 15.3 16.9997C15.3 17.9386 16.0611 18.6997 17 18.6997Z" fill="#83D9F4"/>
</g>
<defs>
<clipPath id="clip0_139_247">
<rect width="34" height="34" fill="white"/>
</clipPath>
</defs>
</svg>
